<?xml version="1.0" encoding="UTF-8"?>
<!DOCTYPE svg PUBLIC "-//W3C//DTD SVG 1.1//EN" "http://www.w3.org/Graphics/SVG/1.1/DTD/svg11.dtd">
<!-- Creator: CorelDRAW 2018 (64 Bit Versión de evaluación) -->
<svg xmlns="http://www.w3.org/2000/svg" xml:space="preserve" width="32.9451mm" height="21.6244mm" version="1.1" shape-rendering="geometricPrecision" text-rendering="geometricPrecision" image-rendering="optimizeQuality" fill-rule="evenodd" clip-rule="evenodd"
viewBox="0 0 351.99 231.04"
 xmlns:xlink="http://www.w3.org/1999/xlink">
 <g id="Capa_x0020_1">
  <metadata id="CorelCorpID_0Corel-Layer"/>
  <path fill="#960DAB" fill-rule="nonzero" d="M325.66 25.08c0,0 12.62,11.13 14.84,14.84 2.23,3.71 3.71,9.65 3.71,12.62 0,2.97 5.2,7.42 5.2,7.42 0,0 3.71,0.74 2.23,5.2 -1.48,4.45 -1.48,4.45 -1.48,4.45 0,0 0,0.74 -0.74,4.45 -0.74,3.71 -2.23,5.19 -2.23,5.19l-1.48 2.97c0,0 -12.62,4.45 -17.81,5.2 -5.2,0.74 -8.16,6.68 -8.16,11.88 0,5.19 4.82,27.83 -6.31,38.22 -11.13,10.39 -20.04,12.62 -26.72,22.27 -6.68,9.65 -11.13,19.3 -9.65,26.72 1.48,7.42 3.71,17.07 4.45,18.56 0.74,1.48 5.94,1.48 5.94,1.48 0,0 8.91,0 10.39,2.97 1.48,2.97 0,8.91 0,8.91l-5.94 0 -0.74 2.23 -2.97 0c0,0 4.45,8.91 -0.74,9.65 -5.2,0.74 -6.68,0 -6.68,0l-14.84 0c0,0 -5.94,0.74 -8.91,-6.68 -2.97,-7.42 -7.42,-17.07 -11.87,-23.01 -4.45,-5.94 -5.94,-9.65 -5.94,-9.65l-11.87 10.39c0,0 -1.49,2.97 1.48,2.97 2.97,0 8.91,0 8.91,3.71 0,3.71 2.23,6.68 -2.23,8.16 -4.45,1.49 -8.91,1.49 -8.91,1.49l-8.16 0c0,0 5.94,2.97 4.45,5.94 -1.48,2.97 -6.68,8.91 -9.65,6.68 -2.97,-2.23 -4.45,0.74 -4.45,0.74l-2.97 -1.48 -2.97 0c0,0 0.74,-2.23 -5.2,-2.23 -5.94,0 -7.42,-1.48 -20.04,0 -12.62,1.49 -20.04,0 -20.04,0 0,0 -24.49,5.94 -36.37,-0.74 0,0 -6.68,0 -9.65,1.48 -2.97,1.49 -31.91,1.49 -57.15,0 -25.23,-1.48 -23.93,-1.11 -31.35,-4.07 -7.42,-2.97 -23.75,-18.56 -23.01,-34.14 0.74,-15.59 11.88,-31.92 12.62,-23.75 0.74,8.16 -2.97,25.24 5.94,31.17 8.91,5.94 9.65,11.13 31.17,12.62 21.52,1.49 9.08,0.37 9.08,0.37 0,0 34.14,0 41.56,-3.71 7.42,-3.71 10.39,-11.87 9.65,-28.2 -0.74,-16.33 2.97,-31.91 2.97,-31.91 0,0 11.13,-32.66 36.37,-49.73 25.23,-17.07 38.6,-17.81 51.95,-17.07 13.36,0.74 16.33,-2.23 16.33,-2.23l14.1 0.74c0,0 5.2,3.71 10.39,0 5.2,-3.71 18.55,-11.88 25.23,-28.95 6.68,-17.07 23.75,-24.49 23.75,-24.49 0,0 7.42,-11.13 9.65,-11.88 2.23,-0.74 5.19,0 5.94,3.71 0.74,3.71 0.74,5.94 0.74,5.94l5.94 -2.97c0,0 5.94,-6.68 9.65,-10.39 3.71,-3.71 10.39,-10.39 10.39,-8.91 0,1.48 -1.49,5.94 -3.71,10.39 -2.23,4.45 -5.94,12.62 -4.08,14.47z"/>
 </g>
</svg>
