<?xml version="1.0" encoding="UTF-8"?>
<!DOCTYPE svg PUBLIC "-//W3C//DTD SVG 1.1//EN" "http://www.w3.org/Graphics/SVG/1.1/DTD/svg11.dtd">
<!-- Creator: CorelDRAW 2018 (64 Bit Versión de evaluación) -->
<svg xmlns="http://www.w3.org/2000/svg" xml:space="preserve" width="35.5147mm" height="27.6457mm" version="1.1" shape-rendering="geometricPrecision" text-rendering="geometricPrecision" image-rendering="optimizeQuality" fill-rule="evenodd" clip-rule="evenodd" viewBox="0 0 406.75 316.63" xmlns:xlink="http://www.w3.org/1999/xlink">
    <path fill="#960DAB" d="M55.46 280.47c0.27,0.82 0.55,2.09 0.55,2.81 0,0.73 -0.72,2.36 -0.82,2.9 -0.61,3.68 1.37,4.82 -1.63,7.07 -1.44,1.08 -3.17,1.75 -5.02,2.16 -3.06,0.68 -6.44,0.6 -9.28,0.34 -5.02,-0.45 -9.15,-0.5 -11.54,-4.95 -0.63,-1.18 -0.81,-2.99 -0.81,-3.62 0,-0.64 0.63,-2.72 1.72,-3.81 0.55,-0.55 1,-2.1 1.32,-3.51 0.9,-3.99 7.5,-17.69 9.56,-20.78 1.93,-2.9 4.59,-20.09 5.8,-24.11 1.55,-5.17 -1.38,-5.79 3.35,-11.88 0.63,-0.82 1.63,-1.17 2.63,-2.54 1,-1.36 1.54,-7.8 1.54,-7.8 0,-12.79 3.77,-22.77 7.47,-34.62 -14.66,6.26 -27.06,5.29 -36.46,-0.45 -8.64,-5.29 -14.9,-14.45 -21.11,-24.34 -0.25,-0.41 -2.77,-6.25 -2.73,-6.73 0.33,-3.75 14.26,8.71 15.05,9.56 3.68,3.95 7.29,8.18 10.94,10.42 8.34,5.13 11.51,4.45 20.84,2.88 33.02,-5.54 18.01,-32.23 77.07,-36.5 23.74,-1.72 48.02,0.24 71.79,1.26 18.42,0.79 26.93,0.82 35.22,-2.16 6.89,-2.48 13.63,-7.03 25.8,-14.97 2.09,-1.36 -0.54,-1.45 -0.72,-2.27 -0.24,-1.06 -7.58,-3.6 -9.16,-7.78 -2.78,-7.34 4.42,-28.27 9.79,-34.92 0,-12.14 -0.63,-20.97 8.16,-29.56 5.39,-5.27 8.27,-13.29 11.6,-19.94 3.82,-7.65 18.51,-15.86 26.15,-18.44 5.65,-1.91 11.75,-2.83 20.9,-4.05 5.99,-0.8 7.53,1.43 10.06,1.45 2.72,0.03 5.47,-0.92 8.43,-0.4 2.13,0.38 4.75,1.58 5.76,4.23 0.25,0.65 0.59,1.29 1.59,1.79 2.54,1.27 3.99,0.54 7.25,0.36 3.26,-0.18 9.07,0.91 11.24,0.72 7.59,-0.63 14.69,-1.4 22.35,-1.46 8.48,-0.07 20.17,0.96 15.63,12.7 -0.72,1.87 -1.45,3.75 -2.18,5.62 -0.97,1.51 -1.94,3.02 -2.9,4.53 -0.72,2.06 -1.45,4.11 -2.18,6.17 -4.31,7.71 -11.65,13.41 -19.58,17.05 -6.57,3.78 -9.65,5.4 -17.13,6.89 -0.65,0.13 -3.26,0 -4.35,0.63 -1.32,0.77 -2.64,1.5 -3.9,2.34 -4.29,2.89 -4.5,4.65 -6.62,8.9 1.31,3.33 23.47,30.85 15.61,45 -5.32,9.59 -14.9,7.27 -23.19,2.96 -0.61,28.8 7.07,51.54 7.07,74.52 0,8.15 -7.1,17.19 -11.78,23.75 -1.47,3.73 -3.34,9.32 -3.99,13.24 -0.46,2.75 -9.49,20.82 -11.61,26.11 -0.86,2.15 -4.32,12.95 -4.53,15.05 -0.53,5.35 -0.62,14.36 4.17,17.95 2.41,1.81 6.47,3.88 10.03,5.76 2.67,1.4 5.06,2.69 6.29,3.67 0.91,0.72 3.99,3.17 4.44,3.45 0.45,0.27 2.81,0.81 2.9,1.81 0.09,0.99 0.9,1.99 -0.55,2.45 -1.45,0.45 -2.36,0.63 -2.81,0.91 -0.45,0.27 -1.81,1.18 -1.81,1.18 0,0 0.72,2.09 -2.54,2.63 -4.23,0.7 -15.53,0.44 -19.92,0.29 -5.2,-0.18 -10.4,-0.67 -12.53,-1.74 -5.28,-2.17 -4.73,-3.32 -6.07,-8.7 -0.27,-0.54 -0.54,-1.09 -0.82,-1.63 -1.03,1.14 -0.59,3.04 -2.08,3.27 -4.69,0.71 -0.98,-12.8 -1.27,-13.87 -0.24,-0.88 0.27,-1.81 0,-2.72 -0.27,-0.9 -0.27,-1 -0.63,-1.81 -0.36,-0.82 -0.82,-1.45 -0.72,-2.45 0.09,-0.99 -0.27,-1.27 0.72,-3.17 1,-1.9 1.81,-2.45 1.72,-3.63 -0.27,-3.46 -0.64,-5.86 -1.11,-9.62 -1.21,-9.74 -8.25,-5.5 -16,-3.47 -0.37,0.09 -0.72,0.19 -1.06,0.29 -3.68,1.08 -3.51,1.68 -4.69,5.26 -0.44,1.33 -0.79,2.69 -0.89,3.73 -0.38,3.81 -0.82,7.95 -0.82,11.61 0,0.63 0.27,3.62 0.27,4.08 0,0.45 0.91,3.26 0.91,3.26 1.87,3.39 2.23,3.56 4.86,6.26 1.2,1.23 2.38,2.5 3.57,3.66 0.52,0.5 1.55,1.06 2.41,1.56 1.85,1.06 1.72,1.78 2.94,3.57 0.57,2.16 0.04,2.38 -1.72,3.26 -0.72,0.36 -1.18,1.18 -1.45,1.72 -0.27,0.55 -0.82,1.45 -1.27,1.73 -0.45,0.27 -0.72,1.27 -1.99,1.36 -1.27,0.09 -1.72,-0.09 -3.17,0.27 -1.45,0.37 -1,0.45 -2.45,0.82 -2.04,0.51 -5.97,1.29 -7.89,0.73 -2.17,-0.64 -1.45,-1 -3.44,-0.73 -2,0.27 -2.18,0.64 -3.45,0.82 -1.27,0.18 -1,0.9 -3.81,0.27 -2.81,-0.63 -2.27,0.54 -3.81,-0.9 -2.85,-2.69 -1.94,-2.8 -3.58,-5.72 -1.08,-1.93 -1.81,-3.83 -1.81,-6.07 0,-3.63 0.88,-7.31 0.91,-11.01 0.3,-2.64 -0.24,-4.19 -0.82,-5.33 -3.29,-6.48 1.89,-12.32 -3.8,-22.14 -0.42,-1.39 -0.85,-2.78 -1.27,-4.17 -14.97,-3.96 -25.72,-13.99 -39.71,-19.58 -11.36,-4.55 -21.06,-8.26 -33.21,-10.97 -7.83,-1.75 -15.25,-2.61 -17.72,-0.43 -2.36,2.08 -4.2,5.42 -6.55,7.59 0,0 -2.17,3.27 -2.17,5.08 0,4.08 6.39,22.87 7.97,26.83 2.06,1.69 4.11,3.38 6.17,5.07 0,0 2.99,1.18 3.72,1.45 2.82,1.06 3.76,2.87 5.36,5.22 1,1.46 1.94,2.96 2.25,3.83 0.58,1.64 0.11,3.17 -2.62,5.1 -1.4,0.99 -3.49,1.67 -5.17,1.36 -1.45,-0.27 -2.45,-0.81 -3.54,-0.45 -1.65,0.55 -3.53,1.21 -5.26,0.63 -1.63,-0.54 -2.27,-0.82 -2.9,-0.72 -5.24,0.75 -5.35,2.1 -9.88,-3.17 -9.81,-11.42 -2.33,-12.47 -7.07,-20.31 -2.22,-3.66 -3.81,-9.56 -5.26,-13.78 -1.85,-1.6 -4.07,-4.23 -5.84,-6.9 -5.3,-8.02 -1.09,-12.11 3.75,-19.21 1.75,-1.99 2.78,-3.18 4.17,-5.44 0.76,-12.09 -12.35,-13.29 -20.31,-7.98 -2.71,4.23 -10.58,7.51 -15.05,3.81 -2.25,-0.37 -4.94,-0.64 -6.52,1.45 -5.72,7.52 -10.65,13.01 -17.23,16.86 -1.32,0.78 -2.28,4.49 -3.74,7.99 -3.14,7.55 -8.93,29.63 -6.76,36.12z"/>
</svg>
